<svg id="pattern" xmlns="http://www.w3.org/2000/svg" viewBox="0 0 42.7532 1000.0466">
  <defs>
    <style>
      .fg {
        fill: currentColor;
      }

      .bg {
        fill: white;
      }
    </style>
  </defs>
  <g id="fg">
    <path
      class="fg"
      d="M-.0433-.4678v329.58A22.5915,22.5915,0,0,0,7.0588,327.92c3.5023-1.352,5.6048-4.1158,7.3384-7.2532a19.9491,19.9491,0,0,0,1.1308-13.4223,24.5981,24.5981,0,0,0,6.9664.4257c3.2187-.4555,4.5593.427,3.9908,3.9351a14.9952,14.9952,0,0,0,1.5255,8.7187,20.0343,20.0343,0,0,0,6.57,7.2072,20.9907,20.9907,0,0,0,8.129,1.5884V-.3628Q21.3333-.3909-.0433-.4678Z"
      transform="translate(0.0433 0.4678)" />
    <path class="fg"
      d="M12.5159,345.7373A13.48,13.48,0,0,0,9.621,342.85a16.9765,16.9765,0,0,0-9.6643-3.3143v31.9966c3.254-.1023,6.7441-1.5238,10.8349-4.2947a7.95,7.95,0,0,0,1.1218-1.1811Q19.5526,356.1091,12.5159,345.7373Z"
      transform="translate(0.0433 0.4678)" />
    <path
      d="M31.9045,387.0916c-8.0463,5.4984-12.8953,5.5-20.9538.0079-5.4187-3.8968-6.7782-13.2067-2.5924-18.235a21.6475,21.6475,0,0,0,2.4482-2.76l-.1666.1666c7.4641-6.4435,13.783-6.5991,21.82-.5472,4.669,4.8658,5.2279,10.6431,3.4871,16.7946C35.3705,384.5566,34.2329,386.4375,31.9045,387.0916Z"
      transform="translate(0.0433 0.4678)" />
    <path
      d="M10.62,388.6412A13.115,13.115,0,0,0-.0433,382.818v29.4648A13.2235,13.2235,0,0,0,12,405.4683C15.4779,399.6107,14.2645,393.9906,10.62,388.6412Z"
      transform="translate(0.0433 0.4678)" />
    <path
      d="M31.9926,388.6412c-3.6442,5.3494-4.8575,10.97-1.38,16.8271C33.3039,410,37.4013,412.6839,42.71,412.667V382.7829A12.8845,12.8845,0,0,0,31.9926,388.6412Z"
      transform="translate(0.0433 0.4678)" />
    <path class="fg"
      d="M35.3037,419.6036a13.8785,13.8785,0,1,1-13.91-13.8456A13.8931,13.8931,0,0,1,35.3037,419.6036Z"
      transform="translate(0.0433 0.4678)" />
    <path class="fg"
      d="M28.9746,440.6459c-.249,7.4316,6.2524,14.5187,13.7353,14.4976V427.7789A13.6368,13.6368,0,0,0,28.9746,440.6459Z"
      transform="translate(0.0433 0.4678)" />
    <path class="fg"
      d="M-.0433,427.3034v27.404l.01.01a14.0287,14.0287,0,0,0,13.6719-13.8114A14.0371,14.0371,0,0,0-.043,427.3031Z"
      transform="translate(0.0433 0.4678)" />
    <path d="M21.3868,449.0216A13.36,13.36,0,1,1,8.064,462.1545,13.3906,13.3906,0,0,1,21.3868,449.0216Z"
      transform="translate(0.0433 0.4678)" />
    <path
      d="M29.6682,483.2955c-.2071,7.6063,5.4648,13.95,13.0292,13.9162.0048-.0048.0077.0048.0125,0V471.0723C35.4825,471.0614,29.8631,476.1369,29.6682,483.2955Z"
      transform="translate(0.0433 0.4678)" />
    <path
      d="M12.9458,484.0008A12.7718,12.7718,0,0,0-.0393,470.7416l-.004.0039V496.758A12.7545,12.7545,0,0,0,12.9458,484.0008Z"
      transform="translate(0.0433 0.4678)" />
    <path class="fg"
      d="M34.2585,505.391a12.8359,12.8359,0,1,1-12.57-13.0954A12.8539,12.8539,0,0,1,34.2585,505.391Z"
      transform="translate(0.0433 0.4678)" />
    <path class="fg"
      d="M12.5912,526.6139A12.9338,12.9338,0,0,0-.0334,513.84l-.01.01v25.31A12.9277,12.9277,0,0,0,12.5912,526.6139Z"
      transform="translate(0.0433 0.4678)" />
    <path class="fg"
      d="M30.0219,526.2863c-.1429,6.8231,5.742,13.17,12.6728,13.1977.0059-.0059.0093.0058.0152,0V514.1614A12.665,12.665,0,0,0,30.0219,526.2863Z"
      transform="translate(0.0433 0.4678)" />
    <path class="fg"
      d="M33.7259,547.8058A12.3017,12.3017,0,1,1,21.49,535.5746,12.3225,12.3225,0,0,1,33.7259,547.8058Z"
      transform="translate(0.0433 0.4678)" />
    <path
      d="M11.8546,569.4184A11.7269,11.7269,0,0,0-.03,557.32l-.0132.0131v23.8271A11.7047,11.7047,0,0,0,11.8546,569.4184Z"
      transform="translate(0.0433 0.4678)" />
    <path
      d="M30.7583,569.1916a12.0363,12.0363,0,0,0,11.94,12.3605c.0047-.0047.0074.0047.0121,0v-23.893C35.9614,557.6667,30.7836,562.4412,30.7583,569.1916Z"
      transform="translate(0.0433 0.4678)" />
    <path class="fg" d="M21.165,602.3605a11.7451,11.7451,0,1,1,12.0009-11.6124A11.79,11.79,0,0,1,21.165,602.3605Z"
      transform="translate(0.0433 0.4678)" />
    <path class="fg"
      d="M42.71,600.9525H42.7c-6.289.0033-11.76,5.1615-11.5445,11.3607.21,6.0655,5.5,11.5164,11.5487,11.5112H42.71Z"
      transform="translate(0.0433 0.4678)" />
    <path class="fg"
      d="M-.0433,600.4749v23.04l.0038.0037a11.8153,11.8153,0,0,0,11.4966-11.757A11.8413,11.8413,0,0,0-.0364,600.468Z"
      transform="translate(0.0433 0.4678)" />
    <path
      d="M10.3692,632.9216a10.9357,10.9357,0,0,1,11.6342-10.5961,11.0581,11.0581,0,0,1-.89,22.0965A10.9381,10.9381,0,0,1,10.3692,632.9216Z"
      transform="translate(0.0433 0.4678)" />
    <path class="fg"
      d="M-.0433,643.9814v21.52l0,0A10.5987,10.5987,0,0,0,10.6942,654.71,10.5957,10.5957,0,0,0-.0433,643.9814Z"
      transform="translate(0.0433 0.4678)" />
    <path class="fg"
      d="M42.71,644.45h-.0027c-6.0992-.0147-10.8027,4.2249-10.7882,10.3206A10.9308,10.9308,0,0,0,42.71,665.8926Z"
      transform="translate(0.0433 0.4678)" />
    <path class="fg"
      d="M31.9952,675.8879a10.8369,10.8369,0,0,1-10.3447,10.7947,10.5715,10.5715,0,1,1-.45-21.1383A10.8361,10.8361,0,0,1,31.9952,675.8879Z"
      transform="translate(0.0433 0.4678)" />
    <path class="fg"
      d="M9.9888,697.3849A9.9134,9.9134,0,0,0-.0433,687.4372V707.54A9.9155,9.9155,0,0,0,9.9888,697.3849Z"
      transform="translate(0.0433 0.4678)" />
    <path class="fg"
      d="M32.6242,697.5273A10.273,10.273,0,0,0,42.71,707.9607V687.7435C37.0213,687.7253,32.6011,691.83,32.6242,697.5273Z"
      transform="translate(0.0433 0.4678)" />
    <path
      d="M31.1247,718.6422a9.578,9.578,0,0,1-9.6155,9.9165,9.7024,9.7024,0,0,1-.4348-19.3981A9.5956,9.5956,0,0,1,31.1247,718.6422Z"
      transform="translate(0.0433 0.4678)" />
    <path class="fg"
      d="M9.42,740.4869a9.7281,9.7281,0,0,0-9.4533-9.7454l-.01.01v18.9624A9.7428,9.7428,0,0,0,9.42,740.4869Z"
      transform="translate(0.0433 0.4678)" />
    <path class="fg"
      d="M42.71,731.2411h-.0045c-5.105-.01-9.5537,3.9736-9.5121,9.0557.0415,5.0557,4.4781,9.7526,9.5166,9.732Z"
      transform="translate(0.0433 0.4678)" />
    <path class="fg" d="M21.2,770.5922a8.9906,8.9906,0,1,1,9.212-8.8931A8.9418,8.9418,0,0,1,21.2,770.5922Z"
      transform="translate(0.0433 0.4678)" />
    <path class="fg" d="M-.0433,774.3784v17.2A8.4858,8.4858,0,0,0,8.5311,783.5a8.5035,8.5035,0,0,0-8.5663-9.13Z"
      transform="translate(0.0433 0.4678)" />
    <path class="fg"
      d="M34.0751,782.8545a8.7408,8.7408,0,0,0,8.6236,9.0382c.0044-.0043.0069.0043.0112,0v-17.154C37.9136,774.7276,34.14,778.0263,34.0751,782.8545Z"
      transform="translate(0.0433 0.4678)" />
    <path class="fg" d="M21.4975,812.69a8.3383,8.3383,0,1,1-.1443-16.676,8.3383,8.3383,0,1,1,.1443,16.676Z"
      transform="translate(0.0433 0.4678)" />
    <path class="fg"
      d="M34.9586,825.588a7.742,7.742,0,0,0,7.7452,8.1686l.0061-.3145V818.4405C38.289,818.4238,35.0282,821.1665,34.9586,825.588Z"
      transform="translate(0.0433 0.4678)" />
    <path class="fg"
      d="M-.0433,818.0084v15.4349l.0074.0072a7.501,7.501,0,0,0,7.69-7.9677A7.4726,7.4726,0,0,0-.0433,818.0084Z"
      transform="translate(0.0433 0.4678)" />
    <path class="fg" d="M21.5905,854.5146a7.4172,7.4172,0,1,1-.0633-14.8318,7.4171,7.4171,0,0,1,.0633,14.8318Z"
      transform="translate(0.0433 0.4678)" />
    <path class="fg"
      d="M-.0433,861.68l0,13.5493.0205.02c4.4162-.0751,6.5783-2.7674,6.816-6.9694C6.31,864.1393,4.0745,861.81-.0433,861.68Z"
      transform="translate(0.0433 0.4678)" />
    <path class="fg"
      d="M35.8793,868.7806c.3324,4.13,2.7514,6.872,6.8306,6.84V862.1424C38.7414,862.1246,35.56,864.8152,35.8793,868.7806Z"
      transform="translate(0.0433 0.4678)" />
    <path class="fg"
      d="M27.8905,889.9678c-.5686,3.8145-2.5986,6.2935-6.5752,6.1993-3.9284-.093-6.2791-2.5-6.2077-6.4325.0713-3.927,2.4944-6.2629,6.4284-6.2122C25.5058,883.5735,27.4651,886.1066,27.8905,889.9678Z"
      transform="translate(0.0433 0.4678)" />
    <path class="fg"
      d="M-.0433,905.5341l0,11.3558.02.0194c3.7665-.04,5.5688-2.3532,5.7164-5.9084C5.284,907.5209,3.3821,905.5225-.0433,905.5341Z"
      transform="translate(0.0433 0.4678)" />
    <path class="fg"
      d="M36.9941,911.7664c.0222,3.4894,2.1209,5.1713,5.7158,5.5138V906.0484C39.1005,906.0241,36.9705,908.0575,36.9941,911.7664Z"
      transform="translate(0.0433 0.4678)" />
    <path class="fg"
      d="M26.7635,932.1865c-.3734,3.3933-2.0325,5.5666-5.3546,5.5928a4.8327,4.8327,0,0,1-5.165-4.9424c-.1251-3.2966,1.9075-5.361,5.1984-5.438C24.5505,927.3261,26.0692,929.4871,26.7635,932.1865Z"
      transform="translate(0.0433 0.4678)" />
    <path class="fg"
      d="M38.3266,954.0387c-.2081,2.9522,1.3292,4.6622,4.38,4.697H42.71v-8.7812A4.0212,4.0212,0,0,0,38.3266,954.0387Z"
      transform="translate(0.0433 0.4678)" />
    <path class="fg"
      d="M-.0433,949.5892l0,8.7276.0161.0155c2.9357-.0316,4.2888-1.7824,4.4029-5.0625C3.8915,951.279,2.7028,949.5429-.0433,949.5892Z"
      transform="translate(0.0433 0.4678)" />
    <path class="fg"
      d="M24.9936,975.329c-.1881,2.2593-1.38,3.5978-3.6814,3.5259-2.3051-.0721-3.5125-1.4866-3.4071-3.7612a3.1807,3.1807,0,0,1,3.3713-3.2789C23.5782,971.7541,24.7867,973.0476,24.9936,975.329Z"
      transform="translate(0.0433 0.4678)" />
    <path class="fg"
      d="M-.0432,994.2859l0,4.8515A2.2372,2.2372,0,0,0,2.38,996.86,2.2638,2.2638,0,0,0-.0348,994.278Z"
      transform="translate(0.0433 0.4678)" />
    <path class="fg"
      d="M42.6763,999.5785l.0293,0v-4.8712a2.2346,2.2346,0,0,0-2.4637,2.4242A2.4415,2.4415,0,0,0,42.6763,999.5785Z"
      transform="translate(0.0433 0.4678)" />
    <path class="fg"
      d="M11.7683,345.8849l-2.0772-2.0615c-5.3567-5.388-5.9907-10.5622-2.1047-17.1785,2.8117-1.3435,3.8764-4.4861,6.356-6.1716,5.0467-4.0678,10.17-2.8784,15.3138-.2222,1.581,2.1715,3.9263,3.7439,4.9682,6.338,4.3531,3.3488,3.854,7.7427,2.5954,12.2645a22.6881,22.6881,0,0,1-2.3148,5.2179,9.2871,9.2871,0,0,1-3.0658,3.0856C22.125,351.8388,17.4381,351.5332,11.7683,345.8849Z"
      transform="translate(0.0433 0.4678)" />
    <path class="fg"
      d="M31.1465,345.6014c-4.1633,7.0879-3.9548,13.9623.8354,20.613a14.9822,14.9822,0,0,0,10.728,4.23v-29.4a19.4475,19.4475,0,0,0-9.8711,2.87Z"
      transform="translate(0.0433 0.4678)" />
  </g>
  <g id="bg">
    <path class="bg"
      d="M10.8319,387.1c-5.6055-6.96-4.3415-13.9673-.1442-20.9946a18.1742,18.1742,0,0,1-10.731,3.93v14.0092c3.2934.0076,6.5888,1.5392,10.6637,4.5976Z"
      transform="translate(0.0433 0.4678)" />
    <path class="bg"
      d="M32.1605,366.304c3.8334,6.9808,5.2366,13.93-.3747,20.7876q.1034.7747.2068,1.55c4.0971-3.075,7.4061-4.1647,10.7173-4.1558V370.4441A14.9321,14.9321,0,0,1,32.1605,366.304Z"
      transform="translate(0.0433 0.4678)" />
    <path class="bg"
      d="M7.4676,326.6449a23.8644,23.8644,0,0,1-7.5109.9681v13.43a19.0845,19.0845,0,0,1,9.6157,2.78C5.9616,338.4536,6.1565,332.6176,7.4676,326.6449Z"
      transform="translate(0.0433 0.4678)" />
    <path class="bg"
      d="M33.72,325.6718c4.0843,3.88,3.6759,14.0907-.63,18.5835,1.0688-1.0689,4.2753-2.859,9.6194-2.859V327.9181C39.8408,327.867,36.1707,327.7139,33.72,325.6718Z"
      transform="translate(0.0433 0.4678)" />
    <path class="bg"
      d="M29.2562,320.2511c-5.951-2.9521-10.6479-2.5437-15.3138.2222,1.1942-3.787,2.0111-11.1387-1.6648-15.7515,4.697,2.7749,11.1275,3.0311,17.3149-.4213C27.2928,310.3951,27.31,315.38,29.2562,320.2511Z"
      transform="translate(0.0433 0.4678)" />
    <path class="bg"
      d="M7.8681,299.198c-2.3914-5.5031-1.986-10.29-.4877-15.23C3.94,285.07,1.9762,285.6262-.0433,285.6163v12.24A29.9886,29.9886,0,0,1,7.8681,299.198Z"
      transform="translate(0.0433 0.4678)" />
    <path class="bg"
      d="M35.0068,283.8819c1.9168,5.1619,1.9808,12.1788-.674,16.0589,2.859-1.8379,5.789-1.6381,8.3771-1.6337V285.85A22.0334,22.0334,0,0,1,35.0068,283.8819Z"
      transform="translate(0.0433 0.4678)" />
    <path class="bg"
      d="M29.4378,277.86a16.14,16.14,0,0,0-15.5069-.1691c1.89-2.8694,2.2214-9.3738.0048-14.1452,3.6515,1.4742,9.9822,2.291,14.4749-.3551A16.2119,16.2119,0,0,0,29.4378,277.86Z"
      transform="translate(0.0433 0.4678)" />
    <path class="bg"
      d="M35.6881,243.3471a15.8238,15.8238,0,0,1-.0373,12.8919,13.7253,13.7253,0,0,1,7.0591-1.2253V243.7819A44.976,44.976,0,0,1,35.6881,243.3471Z"
      transform="translate(0.0433 0.4678)" />
    <path class="bg"
      d="M5.947,243.27c-1.12.0262-4.8283.036-5.99.0385v11.2267a26.6122,26.6122,0,0,1,6.6745.8353A20.0145,20.0145,0,0,1,5.947,243.27Z"
      transform="translate(0.0433 0.4678)" />
    <path class="bg"
      d="M27.6161,233.5488a17.0241,17.0241,0,0,0-12.1464.2563,29.2031,29.2031,0,0,0,.2887-11.9593,19.57,19.57,0,0,0,11.4269-.3515A18.8891,18.8891,0,0,0,27.6161,233.5488Z"
      transform="translate(0.0433 0.4678)" />
    <path class="bg"
      d="M37.8754,201.51c.0932,1.4787.3117,3.4217.2528,4.9526-.0587,1.5257-.3957,3.0406-.6342,4.7262H42.71V201.61A42.0654,42.0654,0,0,1,37.8754,201.51Z"
      transform="translate(0.0433 0.4678)" />
    <path class="bg" d="M4.9738,201.5689H-.0433v9.6195h5.722C4.1994,207.9392,4.4377,204.8033,4.9738,201.5689Z"
      transform="translate(0.0433 0.4678)" />
    <path class="bg"
      d="M17.058,181.2612a29.54,29.54,0,0,0,8.5507,0,26.2478,26.2478,0,0,0,0,8.4813,22.1563,22.1563,0,0,0-8.5507.3118A34.68,34.68,0,0,0,17.058,181.2612Z"
      transform="translate(0.0433 0.4678)" />
    <path class="bg"
      d="M39.2339,163.9342A3.4936,3.4936,0,0,0,42.71,167.61v-6.9433A3.1668,3.1668,0,0,0,39.2339,163.9342Z"
      transform="translate(0.0433 0.4678)" />
    <path class="bg" d="M3.28,163.73a3.2294,3.2294,0,0,0-3.3237-3.4118v6.8958A3.4153,3.4153,0,0,0,3.28,163.73Z"
      transform="translate(0.0433 0.4678)" />
    <path class="bg"
      d="M21.4673,145.1873a2.2817,2.2817,0,0,1-2.5781-2.4914c0-1.4041.9444-2.3167,2.5965-2.3167a2.4893,2.4893,0,0,1,2.509,2.5977A2.4013,2.4013,0,0,1,21.4673,145.1873Z"
      transform="translate(0.0433 0.4678)" />
    <path class="bg"
      d="M.3864,120.4119a2.4763,2.4763,0,0,0-.43-.06v2.7325c.4924-.091,1.1057-.22,1.2509-1.07C1.3378,121.2521,1.1463,120.5915.3864,120.4119Z"
      transform="translate(0.0433 0.4678)" />
    <path class="bg"
      d="M41.3757,121.8814c-.0562.9467.35,1.59,1.33,1.572v-2.68C41.9482,120.7523,41.4229,121.0841,41.3757,121.8814Z"
      transform="translate(0.0433 0.4678)" />
    <path class="bg"
      d="M11.7683,345.8849c6.4487,4.0676,12.8951,4.0413,19.3391-.0114,0,0,.9142-1.0813.2859.4332-3.8029,5.8-4.7158,13.4491.7073,19.9078-7.5608-5.39-14.3141-4.6831-21.4607.057C15.5323,359.7259,15.7224,352.92,11.7683,345.8849Z"
      transform="translate(0.0433 0.4678)" />
  </g>
</svg>
